{"title":"Mr Roosevelt 2017 1080p NetFlix WEBRip 6CH AAC x264 - EiE","magnet":"magnet:?xt=urn:btih:8250ed8baba65fcfea534b17bd82a71d9ce18b0c&dn=Mr+Roosevelt+2017+1080p+NetFlix+WEBRip+6CH+AAC+x264+-+EiE&tr=udp%3A%2F%2Ftracker.leechers-paradise.org%3A6969&tr=udp%3A%2F%2Fzer0day.ch%3A1337&tr=udp%3A%2F%2Fopen.demonii.com%3A1337&tr=udp%3A%2F%2Ftracker.coppersurfer.tk%3A6969&tr=udp%3A%2F%2Fexodus.desync.com%3A6969","uploader":"samcode4u","categoryP":"video","categoryS":"hd___movies","size":"1609771420","seeders":"1","leechers":"122","description":"Mr Roosevelt 2017 1080p NetFlix WEBRip 6CH AAC x264 - EiE\r\n <a href=\"\nhttps://www.imdb.com/title/tt6212496/\" rel=\"nofollow\" target=\"_NEW\">\nhttps://www.imdb.com/title/tt6212496/</a>\r\n\r\n\r\nScreenshots:\r\n <a href=\"\nhttps://lensdump.com/i/lk0p0\" rel=\"nofollow\" target=\"_NEW\">\nhttps://lensdump.com/i/lk0p0</a>\r\n <a href=\"\nhttps://lensdump.com/i/lkWwF\" rel=\"nofollow\" target=\"_NEW\">\nhttps://lensdump.com/i/lkWwF</a>\r\n <a href=\"\nhttps://lensdump.com/i/lkj13\" rel=\"nofollow\" target=\"_NEW\">\nhttps://lensdump.com/i/lkj13</a>\r\n <a href=\"\nhttps://lensdump.com/i/lkIfD\" rel=\"nofollow\" target=\"_NEW\">\nhttps://lensdump.com/i/lkIfD</a>\r\n\r\n\r\nVideo\r\nID                                       : 1\r\nFormat                                   : AVC\r\nFormat/Info                              : Advanced Video Codec\r\nFormat settings                          : CABAC / 4 Ref Frames\r\nFormat settings, CABAC                   : Yes\r\nFormat settings, RefFrames               : 4 frames\r\nCodec ID                                 : avc1\r\nCodec ID/Info                            : Advanced Video Coding\r\nDuration                                 : 1 h 31 min\r\nBit rate                                 : 2 122 kb/s\r\nMaximum bit rate                         : 10.1 Mb/s\r\nWidth                                    : 1 912 pixels\r\nHeight                                   : 1 032 pixels\r\nDisplay aspect ratio                     : 1.85:1\r\nFrame rate mode                          : Constant\r\nFrame rate                               : 24.000 FPS\r\nColor space                              : YUV\r\nChroma subsampling                       : 4:2:0\r\nBit depth                                : 8 bits\r\nScan type                                : Progressive\r\nBits/(Pixel*Frame)                       : 0.045\r\nStream size                              : 1.35 GiB (90%)\r\n\r\nAudio\r\nID                                       : 2\r\nFormat                                   : AAC\r\nFormat/Info                              : Advanced Audio Codec\r\nFormat profile                           : LC\r\nCodec ID                                 : mp4a-40-2\r\nDuration                                 : 1 h 31 min\r\nBit rate mode                            : Variable\r\nBit rate                                 : 232 kb/s\r\nMaximum bit rate                         : 312 kb/s\r\nChannel(s)                               : 6 channels\r\nChannel positions                        : Front: L C R, Side: L R, LFE\r\nSampling rate                            : 48.0 kHz\r\nFrame rate                               : 46.875 FPS (1024 SPF)\r\nCompression mode                         : Lossy\r\nStream size                              : 151 MiB (10%)\r\nLanguage                                 : English","last_updated":"2018-01-01T12:02:13.722Z","parsed":{"xt":"urn:btih:8250ed8baba65fcfea534b17bd82a71d9ce18b0c","dn":"Mr Roosevelt 2017 1080p NetFlix WEBRip 6CH AAC x264 - EiE","tr":["udp://exodus.desync.com:6969","udp://open.demonii.com:1337","udp://tracker.coppersurfer.tk:6969","udp://tracker.leechers-paradise.org:6969","udp://zer0day.ch:1337"],"infoHash":"8250ed8baba65fcfea534b17bd82a71d9ce18b0c","infoHashBuffer":{"type":"Buffer","data":[130,80,237,139,171,166,95,207,234,83,75,23,189,130,167,29,156,225,139,12]},"name":"Mr Roosevelt 2017 1080p NetFlix WEBRip 6CH AAC x264 - EiE","announce":["udp://exodus.desync.com:6969","udp://open.demonii.com:1337","udp://tracker.coppersurfer.tk:6969","udp://tracker.leechers-paradise.org:6969","udp://zer0day.ch:1337"],"urlList":[]}}